# xmcd
#
# Track frame offsets:
#	150
#	22178
#	42904
#	60884
#	73377
#	92976
#
# Disc length: 1541 seconds
# Revision: 0
# Processed by: cddbd v1.5.2PL0 Copyright (c) Steve Scherf et al.
# Submitted via: dBpowerAMP V12.0
#
DISCID=51060306
DTITLE=MerryGold - MerryGold
DYEAR=2014
DGENRE=Bluegrass
TTITLE0=Hangtown
TTITLE1=Whiskey at Noon
TTITLE2=Mother Lode
TTITLE3=Rough and Ready
TTITLE4=Our Place
TTITLE5=Clementine
EXTD=
EXTT0=
EXTT1=
EXTT2=
EXTT3=
EXTT4=
EXTT5=
PLAYORDER=
